<?xml version="1.0" encoding="UTF-8"?>
<svg width="521px" height="357px" viewBox="0 0 521 357" version="1.1" xmlns="http://www.w3.org/2000/svg" xmlns:xlink="http://www.w3.org/1999/xlink">
    <title>Potential outcomes</title>
    <g id="Potential-outcomes" stroke="none" stroke-width="1" fill="none" fill-rule="evenodd">
        <g id="NO-CONFOUNDING" transform="translate(202.669509, 23.611920)" fill="#10162F" fill-rule="nonzero">
            <polygon id="Path" points="0 0.10608 1.81662 0.10608 5.22444 6.2322 5.22444 0.10608 6.94824 0.10608 6.94824 9.38808 5.13162 9.38808 1.7238 3.26196 1.7238 9.38808 0 9.38808"></polygon>
            <path d="M12.9948,9.49416 C12.19036,9.49416 11.45664,9.31736 10.79364,8.96376 C10.13064,8.61016 9.60245,8.07755 9.20907,7.36593 C8.81569,6.65431 8.619,5.78136 8.619,4.74708 C8.619,3.7128 8.81569,2.83985 9.20907,2.12823 C9.60245,1.41661 10.13064,0.884 10.79364,0.5304 C11.45664,0.1768 12.19036,0 12.9948,0 C13.79924,0 14.53296,0.1768 15.19596,0.5304 C15.85896,0.884 16.38715,1.41661 16.78053,2.12823 C17.17391,2.83985 17.3706,3.7128 17.3706,4.74708 C17.3706,5.78136 17.17391,6.65431 16.78053,7.36593 C16.38715,8.07755 15.85896,8.61016 15.19596,8.96376 C14.53296,9.31736 13.79924,9.49416 12.9948,9.49416 Z M12.9948,7.90296 C13.481,7.90296 13.92079,7.79025 14.31417,7.56483 C14.70755,7.33941 15.02358,6.99023 15.26226,6.51729 C15.50094,6.04435 15.62028,5.45428 15.62028,4.74708 C15.62028,4.03988 15.50094,3.44981 15.26226,2.97687 C15.02358,2.50393 14.70755,2.15475 14.31417,1.92933 C13.92079,1.70391 13.481,1.5912 12.9948,1.5912 C12.5086,1.5912 12.06881,1.70391 11.67543,1.92933 C11.28205,2.15475 10.96602,2.50393 10.72734,2.97687 C10.48866,3.44981 10.36932,4.03988 10.36932,4.74708 C10.36932,5.45428 10.48866,6.04435 10.72734,6.51729 C10.96602,6.99023 11.28205,7.33941 11.67543,7.56483 C12.06881,7.79025 12.5086,7.90296 12.9948,7.90296 Z" id="Shape"></path>
            <path d="M26.26806,9.49416 C25.47246,9.49416 24.74095,9.31073 24.07353,8.94387 C23.40611,8.57701 22.8735,8.03556 22.4757,7.31952 C22.0779,6.60348 21.879,5.746 21.879,4.74708 C21.879,3.74816 22.0779,2.89068 22.4757,2.17464 C22.8735,1.4586 23.40611,0.91715 24.07353,0.55029 C24.74095,0.18343 25.47246,0 26.26806,0 C27.27582,0 28.11341,0.24531 28.78083,0.73593 C29.44825,1.22655 29.89246,1.91828 30.11346,2.81112 L28.56204,3.20892 C28.36756,2.6962 28.0891,2.2984 27.72666,2.01552 C27.36422,1.73264 26.87802,1.5912 26.26806,1.5912 C25.77302,1.5912 25.3266,1.70833 24.9288,1.94259 C24.531,2.17685 24.21497,2.53045 23.98071,3.00339 C23.74645,3.47633 23.62932,4.05756 23.62932,4.74708 C23.62932,5.4366 23.74645,6.01783 23.98071,6.49077 C24.21497,6.96371 24.531,7.31731 24.9288,7.55157 C25.3266,7.78583 25.77302,7.90296 26.26806,7.90296 C26.87802,7.90296 27.36422,7.76152 27.72666,7.47864 C28.0891,7.19576 28.36756,6.79796 28.56204,6.28524 L30.11346,6.68304 C29.89246,7.57588 29.44825,8.26761 28.78083,8.75823 C28.11341,9.24885 27.27582,9.49416 26.26806,9.49416 Z" id="Path"></path>
            <path d="M35.65614,9.49416 C34.8517,9.49416 34.11798,9.31736 33.45498,8.96376 C32.79198,8.61016 32.26379,8.07755 31.87041,7.36593 C31.47703,6.65431 31.28034,5.78136 31.28034,4.74708 C31.28034,3.7128 31.47703,2.83985 31.87041,2.12823 C32.26379,1.41661 32.79198,0.884 33.45498,0.5304 C34.11798,0.1768 34.8517,0 35.65614,0 C36.46058,0 37.1943,0.1768 37.8573,0.5304 C38.5203,0.884 39.04849,1.41661 39.44187,2.12823 C39.83525,2.83985 40.03194,3.7128 40.03194,4.74708 C40.03194,5.78136 39.83525,6.65431 39.44187,7.36593 C39.04849,8.07755 38.5203,8.61016 37.8573,8.96376 C37.1943,9.31736 36.46058,9.49416 35.65614,9.49416 Z M35.65614,7.90296 C36.14234,7.90296 36.58213,7.79025 36.97551,7.56483 C37.36889,7.33941 37.68492,6.99023 37.9236,6.51729 C38.16228,6.04435 38.28162,5.45428 38.28162,4.74708 C38.28162,4.03988 38.16228,3.44981 37.9236,2.97687 C37.68492,2.50393 37.36889,2.15475 36.97551,1.92933 C36.58213,1.70391 36.14234,1.5912 35.65614,1.5912 C35.16994,1.5912 34.73015,1.70391 34.33677,1.92933 C33.94339,2.15475 33.62736,2.50393 33.38868,2.97687 C33.15,3.44981 33.03066,4.03988 33.03066,4.74708 C33.03066,5.45428 33.15,6.04435 33.38868,6.51729 C33.62736,6.99023 33.94339,7.33941 34.33677,7.56483 C34.73015,7.79025 35.16994,7.90296 35.65614,7.90296 Z" id="Shape"></path>
            <polygon id="Path" points="41.7027 0.10608 43.51932 0.10608 46.92714 6.2322 46.92714 0.10608 48.65094 0.10608 48.65094 9.38808 46.83432 9.38808 43.4265 3.26196 43.4265 9.38808 41.7027 9.38808"></polygon>
            <polygon id="Path" points="50.77254 0.10608 56.64672 0.10608 56.64672 1.69728 52.49634 1.69728 52.49634 3.81888 55.83786 3.81888 55.83786 5.41008 52.49634 5.41008 52.49634 9.38808 50.77254 9.38808"></polygon>
            <path d="M61.83138,9.49416 C61.02694,9.49416 60.29322,9.31736 59.63022,8.96376 C58.96722,8.61016 58.43903,8.07755 58.04565,7.36593 C57.65227,6.65431 57.45558,5.78136 57.45558,4.74708 C57.45558,3.7128 57.65227,2.83985 58.04565,2.12823 C58.43903,1.41661 58.96722,0.884 59.63022,0.5304 C60.29322,0.1768 61.02694,0 61.83138,0 C62.63582,0 63.36954,0.1768 64.03254,0.5304 C64.69554,0.884 65.22373,1.41661 65.61711,2.12823 C66.01049,2.83985 66.20718,3.7128 66.20718,4.74708 C66.20718,5.78136 66.01049,6.65431 65.61711,7.36593 C65.22373,8.07755 64.69554,8.61016 64.03254,8.96376 C63.36954,9.31736 62.63582,9.49416 61.83138,9.49416 Z M61.83138,7.90296 C62.31758,7.90296 62.75737,7.79025 63.15075,7.56483 C63.54413,7.33941 63.86016,6.99023 64.09884,6.51729 C64.33752,6.04435 64.45686,5.45428 64.45686,4.74708 C64.45686,4.03988 64.33752,3.44981 64.09884,2.97687 C63.86016,2.50393 63.54413,2.15475 63.15075,1.92933 C62.75737,1.70391 62.31758,1.5912 61.83138,1.5912 C61.34518,1.5912 60.90539,1.70391 60.51201,1.92933 C60.11863,2.15475 59.8026,2.50393 59.56392,2.97687 C59.32524,3.44981 59.2059,4.03988 59.2059,4.74708 C59.2059,5.45428 59.32524,6.04435 59.56392,6.51729 C59.8026,6.99023 60.11863,7.33941 60.51201,7.56483 C60.90539,7.79025 61.34518,7.90296 61.83138,7.90296 Z" id="Shape"></path>
            <path d="M71.23272,9.49416 C70.17192,9.49416 69.32991,9.18918 68.70669,8.57922 C68.08347,7.96926 67.77186,7.06316 67.77186,5.86092 L67.77186,0.10608 L69.49566,0.10608 L69.49566,5.88744 C69.49566,7.23112 70.07468,7.90296 71.23272,7.90296 C72.39076,7.90296 72.96978,7.23112 72.96978,5.88744 L72.96978,0.10608 L74.69358,0.10608 L74.69358,5.86092 C74.69358,7.06316 74.38197,7.96926 73.75875,8.57922 C73.13553,9.18918 72.29352,9.49416 71.23272,9.49416 Z" id="Path"></path>
            <polygon id="Path" points="76.6428 0.10608 78.45942 0.10608 81.86724 6.2322 81.86724 0.10608 83.59104 0.10608 83.59104 9.38808 81.77442 9.38808 78.3666 3.26196 78.3666 9.38808 76.6428 9.38808"></polygon>
            <path d="M88.61658,0.10608 C89.38566,0.10608 90.09728,0.27404 90.75144,0.60996 C91.4056,0.94588 91.93379,1.46081 92.33601,2.15475 C92.73823,2.84869 92.93934,3.7128 92.93934,4.74708 C92.93934,5.78136 92.73823,6.64547 92.33601,7.33941 C91.93379,8.03335 91.4056,8.54828 90.75144,8.8842 C90.09728,9.22012 89.38566,9.38808 88.61658,9.38808 L85.71264,9.38808 L85.71264,0.10608 L88.61658,0.10608 Z M88.07292,7.79688 C88.95692,7.79688 89.69727,7.56925 90.29397,7.11399 C90.89067,6.65873 91.18902,5.86976 91.18902,4.74708 C91.18902,3.6244 90.89067,2.83543 90.29397,2.38017 C89.69727,1.92491 88.95692,1.69728 88.07292,1.69728 L87.43644,1.69728 L87.43644,7.79688 L88.07292,7.79688 Z" id="Shape"></path>
            <polygon id="Path" points="94.6101 0.10608 96.3339 0.10608 96.3339 9.38808 94.6101 9.38808"></polygon>
            <polygon id="Path" points="98.4555 0.10608 100.27212 0.10608 103.67994 6.2322 103.67994 0.10608 105.40374 0.10608 105.40374 9.38808 103.58712 9.38808 100.1793 3.26196 100.1793 9.38808 98.4555 9.38808"></polygon>
            <path d="M111.35748,9.49416 C110.5884,9.49416 109.87899,9.31515 109.22925,8.95713 C108.57951,8.59911 108.05795,8.06208 107.66457,7.34604 C107.27119,6.63 107.0745,5.76368 107.0745,4.74708 C107.0745,3.73048 107.27782,2.86637 107.68446,2.15475 C108.0911,1.44313 108.63034,0.9061 109.30218,0.54366 C109.97402,0.18122 110.70332,0 111.49008,0 C112.489,0 113.31996,0.26741 113.98296,0.80223 C114.64596,1.33705 115.10122,2.04646 115.34874,2.93046 L113.7708,3.34152 C113.29344,2.17464 112.5332,1.5912 111.49008,1.5912 C110.70332,1.5912 110.06242,1.85861 109.56738,2.39343 C109.07234,2.92825 108.82482,3.7128 108.82482,4.74708 C108.82482,5.80788 109.06792,6.59906 109.55412,7.12062 C110.04032,7.64218 110.67238,7.90296 111.4503,7.90296 C112.07794,7.90296 112.56635,7.72837 112.91553,7.37919 C113.26471,7.03001 113.47024,6.61674 113.53212,6.13938 L111.80832,6.13938 L111.80832,4.7073 L115.20288,4.7073 L115.20288,9.38808 L113.75754,9.38808 L113.61168,8.39358 C113.40836,8.71182 113.11885,8.97481 112.74315,9.18255 C112.36745,9.39029 111.90556,9.49416 111.35748,9.49416 Z" id="Path"></path>
        </g>
        <g id="CONFOUNDING" transform="translate(213.383589, 151.611920)" fill="#10162F" fill-rule="nonzero">
            <path d="M4.38906,9.49416 C3.59346,9.49416 2.86195,9.31073 2.19453,8.94387 C1.52711,8.57701 0.9945,8.03556 0.5967,7.31952 C0.1989,6.60348 0,5.746 0,4.74708 C0,3.74816 0.1989,2.89068 0.5967,2.17464 C0.9945,1.4586 1.52711,0.91715 2.19453,0.55029 C2.86195,0.18343 3.59346,0 4.38906,0 C5.39682,0 6.23441,0.24531 6.90183,0.73593 C7.56925,1.22655 8.01346,1.91828 8.23446,2.81112 L6.68304,3.20892 C6.48856,2.6962 6.2101,2.2984 5.84766,2.01552 C5.48522,1.73264 4.99902,1.5912 4.38906,1.5912 C3.89402,1.5912 3.4476,1.70833 3.0498,1.94259 C2.652,2.17685 2.33597,2.53045 2.10171,3.00339 C1.86745,3.47633 1.75032,4.05756 1.75032,4.74708 C1.75032,5.4366 1.86745,6.01783 2.10171,6.49077 C2.33597,6.96371 2.652,7.31731 3.0498,7.55157 C3.4476,7.78583 3.89402,7.90296 4.38906,7.90296 C4.99902,7.90296 5.48522,7.76152 5.84766,7.47864 C6.2101,7.19576 6.48856,6.79796 6.68304,6.28524 L8.23446,6.68304 C8.01346,7.57588 7.56925,8.26761 6.90183,8.75823 C6.23441,9.24885 5.39682,9.49416 4.38906,9.49416 Z" id="Path"></path>
            <path d="M13.77714,9.49416 C12.9727,9.49416 12.23898,9.31736 11.57598,8.96376 C10.91298,8.61016 10.38479,8.07755 9.99141,7.36593 C9.59803,6.65431 9.40134,5.78136 9.40134,4.74708 C9.40134,3.7128 9.59803,2.83985 9.99141,2.12823 C10.38479,1.41661 10.91298,0.884 11.57598,0.5304 C12.23898,0.1768 12.9727,0 13.77714,0 C14.58158,0 15.3153,0.1768 15.9783,0.5304 C16.6413,0.884 17.16949,1.41661 17.56287,2.12823 C17.95625,2.83985 18.15294,3.7128 18.15294,4.74708 C18.15294,5.78136 17.95625,6.65431 17.56287,7.36593 C17.16949,8.07755 16.6413,8.61016 15.9783,8.96376 C15.3153,9.31736 14.58158,9.49416 13.77714,9.49416 Z M13.77714,7.90296 C14.26334,7.90296 14.70313,7.79025 15.09651,7.56483 C15.48989,7.33941 15.80592,6.99023 16.0446,6.51729 C16.28328,6.04435 16.40262,5.45428 16.40262,4.74708 C16.40262,4.03988 16.28328,3.44981 16.0446,2.97687 C15.80592,2.50393 15.48989,2.15475 15.09651,1.92933 C14.70313,1.70391 14.26334,1.5912 13.77714,1.5912 C13.29094,1.5912 12.85115,1.70391 12.45777,1.92933 C12.06439,2.15475 11.74836,2.50393 11.50968,2.97687 C11.271,3.44981 11.15166,4.03988 11.15166,4.74708 C11.15166,5.45428 11.271,6.04435 11.50968,6.51729 C11.74836,6.99023 12.06439,7.33941 12.45777,7.56483 C12.85115,7.79025 13.29094,7.90296 13.77714,7.90296 Z" id="Shape"></path>
            <polygon id="Path" points="19.8237 0.10608 21.64032 0.10608 25.04814 6.2322 25.04814 0.10608 26.77194 0.10608 26.77194 9.38808 24.95532 9.38808 21.5475 3.26196 21.5475 9.38808 19.8237 9.38808"></polygon>
            <polygon id="Path" points="28.89354 0.10608 34.76772 0.10608 34.76772 1.69728 30.61734 1.69728 30.61734 3.81888 33.95886 3.81888 33.95886 5.41008 30.61734 5.41008 30.61734 9.38808 28.89354 9.38808"></polygon>
            <path d="M39.95238,9.49416 C39.14794,9.49416 38.41422,9.31736 37.75122,8.96376 C37.08822,8.61016 36.56003,8.07755 36.16665,7.36593 C35.77327,6.65431 35.57658,5.78136 35.57658,4.74708 C35.57658,3.7128 35.77327,2.83985 36.16665,2.12823 C36.56003,1.41661 37.08822,0.884 37.75122,0.5304 C38.41422,0.1768 39.14794,0 39.95238,0 C40.75682,0 41.49054,0.1768 42.15354,0.5304 C42.81654,0.884 43.34473,1.41661 43.73811,2.12823 C44.13149,2.83985 44.32818,3.7128 44.32818,4.74708 C44.32818,5.78136 44.13149,6.65431 43.73811,7.36593 C43.34473,8.07755 42.81654,8.61016 42.15354,8.96376 C41.49054,9.31736 40.75682,9.49416 39.95238,9.49416 Z M39.95238,7.90296 C40.43858,7.90296 40.87837,7.79025 41.27175,7.56483 C41.66513,7.33941 41.98116,6.99023 42.21984,6.51729 C42.45852,6.04435 42.57786,5.45428 42.57786,4.74708 C42.57786,4.03988 42.45852,3.44981 42.21984,2.97687 C41.98116,2.50393 41.66513,2.15475 41.27175,1.92933 C40.87837,1.70391 40.43858,1.5912 39.95238,1.5912 C39.46618,1.5912 39.02639,1.70391 38.63301,1.92933 C38.23963,2.15475 37.9236,2.50393 37.68492,2.97687 C37.44624,3.44981 37.3269,4.03988 37.3269,4.74708 C37.3269,5.45428 37.44624,6.04435 37.68492,6.51729 C37.9236,6.99023 38.23963,7.33941 38.63301,7.56483 C39.02639,7.79025 39.46618,7.90296 39.95238,7.90296 Z" id="Shape"></path>
            <path d="M49.35372,9.49416 C48.29292,9.49416 47.45091,9.18918 46.82769,8.57922 C46.20447,7.96926 45.89286,7.06316 45.89286,5.86092 L45.89286,0.10608 L47.61666,0.10608 L47.61666,5.88744 C47.61666,7.23112 48.19568,7.90296 49.35372,7.90296 C50.51176,7.90296 51.09078,7.23112 51.09078,5.88744 L51.09078,0.10608 L52.81458,0.10608 L52.81458,5.86092 C52.81458,7.06316 52.50297,7.96926 51.87975,8.57922 C51.25653,9.18918 50.41452,9.49416 49.35372,9.49416 Z" id="Path"></path>
            <polygon id="Path" points="54.7638 0.10608 56.58042 0.10608 59.98824 6.2322 59.98824 0.10608 61.71204 0.10608 61.71204 9.38808 59.89542 9.38808 56.4876 3.26196 56.4876 9.38808 54.7638 9.38808"></polygon>
            <path d="M66.73758,0.10608 C67.50666,0.10608 68.21828,0.27404 68.87244,0.60996 C69.5266,0.94588 70.05479,1.46081 70.45701,2.15475 C70.85923,2.84869 71.06034,3.7128 71.06034,4.74708 C71.06034,5.78136 70.85923,6.64547 70.45701,7.33941 C70.05479,8.03335 69.5266,8.54828 68.87244,8.8842 C68.21828,9.22012 67.50666,9.38808 66.73758,9.38808 L63.83364,9.38808 L63.83364,0.10608 L66.73758,0.10608 Z M66.19392,7.79688 C67.07792,7.79688 67.81827,7.56925 68.41497,7.11399 C69.01167,6.65873 69.31002,5.86976 69.31002,4.74708 C69.31002,3.6244 69.01167,2.83543 68.41497,2.38017 C67.81827,1.92491 67.07792,1.69728 66.19392,1.69728 L65.55744,1.69728 L65.55744,7.79688 L66.19392,7.79688 Z" id="Shape"></path>
            <polygon id="Path" points="72.7311 0.10608 74.4549 0.10608 74.4549 9.38808 72.7311 9.38808"></polygon>
            <polygon id="Path" points="76.5765 0.10608 78.39312 0.10608 81.80094 6.2322 81.80094 0.10608 83.52474 0.10608 83.52474 9.38808 81.70812 9.38808 78.3003 3.26196 78.3003 9.38808 76.5765 9.38808"></polygon>
            <path d="M89.47848,9.49416 C88.7094,9.49416 87.99999,9.31515 87.35025,8.95713 C86.70051,8.59911 86.17895,8.06208 85.78557,7.34604 C85.39219,6.63 85.1955,5.76368 85.1955,4.74708 C85.1955,3.73048 85.39882,2.86637 85.80546,2.15475 C86.2121,1.44313 86.75134,0.9061 87.42318,0.54366 C88.09502,0.18122 88.82432,0 89.61108,0 C90.61,0 91.44096,0.26741 92.10396,0.80223 C92.76696,1.33705 93.22222,2.04646 93.46974,2.93046 L91.8918,3.34152 C91.41444,2.17464 90.6542,1.5912 89.61108,1.5912 C88.82432,1.5912 88.18342,1.85861 87.68838,2.39343 C87.19334,2.92825 86.94582,3.7128 86.94582,4.74708 C86.94582,5.80788 87.18892,6.59906 87.67512,7.12062 C88.16132,7.64218 88.79338,7.90296 89.5713,7.90296 C90.19894,7.90296 90.68735,7.72837 91.03653,7.37919 C91.38571,7.03001 91.59124,6.61674 91.65312,6.13938 L89.92932,6.13938 L89.92932,4.7073 L93.32388,4.7073 L93.32388,9.38808 L91.87854,9.38808 L91.73268,8.39358 C91.52936,8.71182 91.23985,8.97481 90.86415,9.18255 C90.48845,9.39029 90.02656,9.49416 89.47848,9.49416 Z" id="Path"></path>
        </g>
        <polygon id="Fill-7-Copy-8" fill="#FFF0E5" points="84 104.052482 204.209511 104.052482 204.209511 54.0524819 84 54.0524819"></polygon>
        <polygon id="Fill-7-Copy-10" fill="#FFF0E5" points="84 336.052482 204.209511 336.052482 204.209511 286.052482 84 286.052482"></polygon>
        <polygon id="Fill-7-Copy-12" fill="#FFFAE5" points="200 233.052482 320.209511 233.052482 320.209511 183.052482 200 183.052482"></polygon>
        <g id="Group-5" transform="translate(204.580977, 67.000000)" fill="#10162F" fill-rule="nonzero">
            <path d="M86.4330694,-0.353553391 C86.6066357,-0.527119742 86.8760601,-0.546404893 87.0709282,-0.411408841 L87.1401761,-0.353553391 L99.4371761,11.9434466 C99.6107425,12.117013 99.6300276,12.3864374 99.4950316,12.5813055 L99.4371761,12.6505534 L87.1401761,24.9475534 C86.944914,25.1428155 86.6283315,25.1428155 86.4330694,24.9475534 C86.259503,24.773987 86.2402179,24.5045626 86.3752139,24.3096945 L86.4330694,24.2404466 L98.377,12.297 L86.4330694,0.353553391 C86.259503,0.179987039 86.2402179,-0.0894373624 86.3752139,-0.284305503 L86.4330694,-0.353553391 Z" id="Stroke-1"></path>
            <path d="M99.0840227,11.7968 C99.3601651,11.7968 99.5840227,12.0206576 99.5840227,12.2968 C99.5840227,12.5422599 99.4071476,12.7464084 99.1738984,12.7887443 L99.0840227,12.7968 L0,12.7968 C-0.276142375,12.7968 -0.5,12.5729424 -0.5,12.2968 C-0.5,12.0513401 -0.323124839,11.8471916 -0.0898756324,11.8048557 L0,11.7968 L99.0840227,11.7968 Z" id="Stroke-3"></path>
        </g>
        <g id="Group-5-Copy" transform="translate(204.580977, 299.000000)" fill="#10162F" fill-rule="nonzero">
            <path d="M86.4330694,-0.353553391 C86.6066357,-0.527119742 86.8760601,-0.546404893 87.0709282,-0.411408841 L87.1401761,-0.353553391 L99.4371761,11.9434466 C99.6107425,12.117013 99.6300276,12.3864374 99.4950316,12.5813055 L99.4371761,12.6505534 L87.1401761,24.9475534 C86.944914,25.1428155 86.6283315,25.1428155 86.4330694,24.9475534 C86.259503,24.773987 86.2402179,24.5045626 86.3752139,24.3096945 L86.4330694,24.2404466 L98.377,12.297 L86.4330694,0.353553391 C86.259503,0.179987039 86.2402179,-0.0894373624 86.3752139,-0.284305503 L86.4330694,-0.353553391 Z" id="Stroke-1"></path>
            <path d="M99.0840227,11.7968 C99.3601651,11.7968 99.5840227,12.0206576 99.5840227,12.2968 C99.5840227,12.5422599 99.4071476,12.7464084 99.1738984,12.7887443 L99.0840227,12.7968 L0,12.7968 C-0.276142375,12.7968 -0.5,12.5729424 -0.5,12.2968 C-0.5,12.0513401 -0.323124839,11.8471916 -0.0898756324,11.8048557 L0,11.7968 L99.0840227,11.7968 Z" id="Stroke-3"></path>
        </g>
        <g id="Group-5-Copy-2" transform="translate(309.272396, 254.446408) rotate(-315.000000) translate(-309.272396, -254.446408) translate(279.640165, 242.149408)" fill="#10162F" fill-rule="nonzero">
            <path d="M46.6135105,-0.353553391 C46.7870769,-0.527119742 47.0565013,-0.546404893 47.2513694,-0.411408841 L47.3206173,-0.353553391 L59.6176173,11.9434466 C59.7911837,12.117013 59.8104688,12.3864374 59.6754728,12.5813055 L59.6176173,12.6505534 L47.3206173,24.9475534 C47.1253552,25.1428155 46.8087727,25.1428155 46.6135105,24.9475534 C46.4399442,24.773987 46.420659,24.5045626 46.5556551,24.3096945 L46.6135105,24.2404466 L58.557,12.297 L46.6135105,0.353553391 C46.4399442,0.179987039 46.420659,-0.0894373624 46.5556551,-0.284305503 L46.6135105,-0.353553391 Z" id="Stroke-1"></path>
            <path d="M59.2644639,11.7968 C59.5406063,11.7968 59.7644639,12.0206576 59.7644639,12.2968 C59.7644639,12.5422599 59.5875888,12.7464084 59.3543396,12.7887443 L59.2644639,12.7968 L8.06577027e-14,12.7968 C-0.276142375,12.7968 -0.5,12.5729424 -0.5,12.2968 C-0.5,12.0513401 -0.323124839,11.8471916 -0.0898756324,11.8048557 L8.06577027e-14,11.7968 L59.2644639,11.7968 Z" id="Stroke-3"></path>
        </g>
        <g id="Group-5-Copy-3" transform="translate(209.272396, 254.446408) scale(-1, 1) rotate(-315.000000) translate(-209.272396, -254.446408) translate(179.640165, 242.149408)" fill="#10162F" fill-rule="nonzero">
            <path d="M46.6135105,-0.353553391 C46.7870769,-0.527119742 47.0565013,-0.546404893 47.2513694,-0.411408841 L47.3206173,-0.353553391 L59.6176173,11.9434466 C59.7911837,12.117013 59.8104688,12.3864374 59.6754728,12.5813055 L59.6176173,12.6505534 L47.3206173,24.9475534 C47.1253552,25.1428155 46.8087727,25.1428155 46.6135105,24.9475534 C46.4399442,24.773987 46.420659,24.5045626 46.5556551,24.3096945 L46.6135105,24.2404466 L58.557,12.297 L46.6135105,0.353553391 C46.4399442,0.179987039 46.420659,-0.0894373624 46.5556551,-0.284305503 L46.6135105,-0.353553391 Z" id="Stroke-1"></path>
            <path d="M59.2644639,11.7968 C59.5406063,11.7968 59.7644639,12.0206576 59.7644639,12.2968 C59.7644639,12.5422599 59.5875888,12.7464084 59.3543396,12.7887443 L59.2644639,12.7968 L-5.6510352e-14,12.7968 C-0.276142375,12.7968 -0.5,12.5729424 -0.5,12.2968 C-0.5,12.0513401 -0.323124839,11.8471916 -0.0898756324,11.8048557 L-5.6510352e-14,11.7968 L59.2644639,11.7968 Z" id="Stroke-3"></path>
        </g>
        <polygon id="Fill-7-Copy-9" fill="#F5FFE3" points="314 104.052482 434.209511 104.052482 434.209511 54.0524819 314 54.0524819"></polygon>
        <polygon id="Fill-7-Copy-11" fill="#F5FFE3" points="314 336.052482 434.209511 336.052482 434.209511 286.052482 314 286.052482"></polygon>
        <path d="M204.970977,53.896725 L83.9814659,53.896725 L83.9814659,104.676725 L204.970977,104.676725 L204.970977,53.896725 Z M204.19,54.676 L204.19,103.896 L84.761,103.896 L84.761,54.676 L204.19,54.676 Z" id="Stroke-8-Copy-8" fill="#10162F" fill-rule="nonzero"></path>
        <path d="M204.970977,285.896725 L83.9814659,285.896725 L83.9814659,336.676725 L204.970977,336.676725 L204.970977,285.896725 Z M204.19,286.676 L204.19,335.896 L84.761,335.896 L84.761,286.676 L204.19,286.676 Z" id="Stroke-8-Copy-10" fill="#10162F" fill-rule="nonzero"></path>
        <path d="M320.970977,182.896725 L199.981466,182.896725 L199.981466,233.676725 L320.970977,233.676725 L320.970977,182.896725 Z M320.19,183.676 L320.19,232.896 L200.761,232.896 L200.761,183.676 L320.19,183.676 Z" id="Stroke-8-Copy-12" fill="#10162F" fill-rule="nonzero"></path>
        <path d="M434.970977,53.896725 L313.981466,53.896725 L313.981466,104.676725 L434.970977,104.676725 L434.970977,53.896725 Z M434.19,54.676 L434.19,103.896 L314.761,103.896 L314.761,54.676 L434.19,54.676 Z" id="Stroke-8-Copy-9" fill="#10162F" fill-rule="nonzero"></path>
        <path d="M434.970977,285.896725 L313.981466,285.896725 L313.981466,336.676725 L434.970977,336.676725 L434.970977,285.896725 Z M434.19,286.676 L434.19,335.896 L314.761,335.896 L314.761,286.676 L434.19,286.676 Z" id="Stroke-8-Copy-11" fill="#10162F" fill-rule="nonzero"></path>
        <g id="Z" transform="translate(141.095586, 74.386500)" fill="#10162F" fill-rule="nonzero">
            <polygon id="Path" points="6.37806 0 0.3978 0 0.3978 1.1934 4.94598 1.1934 0 8.4201 0 9.6135 6.4311 9.6135 6.4311 8.4201 1.44534 8.4201 6.37806 1.1934"></polygon>
        </g>
        <g id="Z-Copy" transform="translate(141.095586, 306.386500)" fill="#10162F" fill-rule="nonzero">
            <polygon id="Path" points="6.37806 0 0.3978 0 0.3978 1.1934 4.94598 1.1934 0 8.4201 0 9.6135 6.4311 9.6135 6.4311 8.4201 1.44534 8.4201 6.37806 1.1934"></polygon>
        </g>
        <g id="X" transform="translate(256.525406, 203.386500)" fill="#10162F" fill-rule="nonzero">
            <polygon id="Path" points="2.27373675e-13 9.6135 1.3923 9.6135 3.83214 5.67528 6.24546 9.6135 7.6908 9.6135 4.56144 4.49514 7.34604 0 5.967 0 3.87192 3.36804 1.81662 0 0.35802 0 3.14262 4.54818"></polygon>
        </g>
        <g id="Y" transform="translate(370.419326, 74.386500)" fill="#10162F" fill-rule="nonzero">
            <polygon id="Path" points="3.95148 4.7073 1.47186 0 0 0 3.315 6.00678 3.315 9.6135 4.5747 9.6135 4.5747 6.00678 7.8897 0 6.41784 0"></polygon>
        </g>
        <g id="Y-Copy" transform="translate(370.419326, 306.386500)" fill="#10162F" fill-rule="nonzero">
            <polygon id="Path" points="3.95148 4.7073 1.47186 0 0 0 3.315 6.00678 3.315 9.6135 4.5747 9.6135 4.5747 6.00678 7.8897 0 6.41784 0"></polygon>
        </g>
    </g>
</svg>